<svg width="193" height="116" viewBox="0 0 193 116" fill="none" xmlns="http://www.w3.org/2000/svg">
<path d="M192.013 75.3564C192.013 75.7503 191.798 76.1084 191.368 76.4307C190.938 76.7529 190.437 77.0215 189.864 77.2363C189.327 77.4512 188.772 77.6123 188.199 77.7197C187.626 77.863 187.179 77.9346 186.856 77.9346C186.248 77.9346 185.693 77.8092 185.191 77.5586C184.69 77.3438 184.225 77.0573 183.795 76.6992C183.365 76.3411 182.953 75.9473 182.56 75.5176C182.201 75.0879 181.861 74.6582 181.539 74.2285C180.286 72.6888 178.997 70.9701 177.672 69.0723C176.347 67.1745 175.165 65.3662 174.127 63.6475C174.127 63.7907 174.145 63.9697 174.181 64.1846C174.216 64.3994 174.234 64.5785 174.234 64.7217C174.306 65.4736 174.36 66.2256 174.396 66.9775C174.467 67.6937 174.557 68.4277 174.664 69.1797C174.7 69.6094 174.736 70.0391 174.771 70.4688C174.843 70.8626 174.915 71.2923 174.986 71.7578C175.058 72.3307 175.13 72.9036 175.201 73.4766C175.273 74.0495 175.309 74.6403 175.309 75.249C175.309 76.001 175.094 76.5023 174.664 76.7529C174.234 77.0394 173.661 77.1826 172.945 77.1826C172.444 77.1826 171.907 77.1468 171.334 77.0752C170.761 77.0036 170.206 76.8604 169.669 76.6455C169.132 76.4307 168.648 76.1442 168.219 75.7861C167.789 75.4281 167.467 74.9626 167.252 74.3896C167.145 73.96 167.037 73.1543 166.93 71.9727C166.822 70.791 166.733 69.484 166.661 68.0518C166.59 66.5837 166.518 65.1156 166.446 63.6475C166.41 62.1794 166.375 60.9619 166.339 59.9951C166.339 59.7803 166.321 59.6012 166.285 59.458C166.285 59.3148 166.285 59.1715 166.285 59.0283C165.999 58.7777 165.748 58.4733 165.533 58.1152C165.318 57.7572 165.211 57.417 165.211 57.0947C165.211 56.6292 165.3 56.2174 165.479 55.8594C165.659 55.5013 165.855 55.1611 166.07 54.8389C165.855 50.4346 165.748 46.0482 165.748 41.6797C165.748 38.0632 165.784 34.4824 165.855 30.9375C165.963 27.3568 166.052 23.776 166.124 20.1953L166.285 12.998C166.321 12.64 166.339 12.1745 166.339 11.6016C166.339 11.0286 166.339 10.4199 166.339 9.77539C166.339 8.98763 166.339 8.16406 166.339 7.30469C166.339 6.44531 166.357 5.63965 166.393 4.8877C166.428 4.13574 166.464 3.4554 166.5 2.84668C166.536 2.23796 166.607 1.79036 166.715 1.50391V1.55762C166.858 1.02051 167.055 0.626628 167.306 0.375977C167.556 0.125326 167.986 0 168.595 0C170.099 0 171.262 0.447591 172.086 1.34277C172.91 2.23796 173.321 3.4375 173.321 4.94141C173.321 7.34049 173.303 9.73958 173.268 12.1387C173.268 14.502 173.25 16.8831 173.214 19.2822C173.178 21.6813 173.142 24.0804 173.106 26.4795C173.106 28.8428 173.106 31.224 173.106 33.623C173.106 34.4824 173.106 35.3597 173.106 36.2549C173.142 37.1143 173.16 37.9915 173.16 38.8867C173.196 39.6029 173.214 40.3369 173.214 41.0889C173.214 41.8408 173.214 42.6286 173.214 43.4521L179.015 34.2139V34.2676L179.498 33.3008C179.605 33.1217 179.659 32.9964 179.659 32.9248C179.695 32.8532 179.731 32.7637 179.767 32.6562C179.838 32.513 179.964 32.2982 180.143 32.0117C180.357 31.7253 180.715 31.2956 181.217 30.7227C181.396 30.5436 181.611 30.3825 181.861 30.2393C182.112 30.096 182.434 30.0244 182.828 30.0244C183.222 30.0244 183.616 30.1497 184.01 30.4004C184.439 30.6152 184.815 30.9017 185.138 31.2598C185.46 31.6178 185.729 32.0117 185.943 32.4414C186.158 32.8711 186.266 33.265 186.266 33.623C186.266 33.9095 186.104 34.4108 185.782 35.127C185.46 35.8073 185.03 36.6488 184.493 37.6514C183.992 38.654 183.419 39.7461 182.774 40.9277C182.13 42.0736 181.45 43.2373 180.733 44.4189C180.053 45.6006 179.391 46.7464 178.746 47.8564C178.102 48.9665 177.529 49.9512 177.027 50.8105L175.631 53.0664C176.454 54.4987 177.403 56.0921 178.478 57.8467C179.588 59.5654 180.751 61.3021 181.969 63.0566C183.186 64.8112 184.422 66.4941 185.675 68.1055C186.964 69.7168 188.217 71.1312 189.435 72.3486L189.972 72.7783C190.401 73.1006 190.849 73.4945 191.314 73.96C191.78 74.3896 192.013 74.8551 192.013 75.3564Z" fill="#222222"/>
<path d="M145.18 74.2832C145.18 75.1068 144.929 75.6439 144.428 75.8945C143.962 76.1452 143.389 76.2705 142.709 76.2705C142.1 76.2705 141.492 76.2168 140.883 76.1094C140.31 76.0378 139.755 75.8766 139.218 75.626C138.716 75.3753 138.269 75.0352 137.875 74.6055C137.517 74.1758 137.266 73.6208 137.123 72.9404C136.622 70.792 136.335 68.6973 136.264 66.6562C136.192 64.5794 136.156 62.4489 136.156 60.2646V53.6582C136.156 50.6504 136.282 47.5352 136.532 44.3125C136.783 41.054 137.051 37.9209 137.338 34.9131C137.338 34.8057 137.356 34.6803 137.392 34.5371C137.427 34.3939 137.445 34.2865 137.445 34.2148C137.481 33.821 137.535 33.3913 137.606 32.9258C137.678 32.4603 137.785 32.0485 137.929 31.6904C138.108 31.2965 138.34 30.9743 138.627 30.7236C138.949 30.473 139.361 30.3477 139.862 30.3477C140.435 30.3477 140.972 30.473 141.474 30.7236C142.011 30.9385 142.476 31.2428 142.87 31.6367C143.264 31.9948 143.568 32.4424 143.783 32.9795C144.034 33.5166 144.159 34.0716 144.159 34.6445C144.159 35.2533 144.141 35.9336 144.105 36.6855C144.07 37.4017 144.016 38.082 143.944 38.7266C143.944 38.9056 143.926 39.1025 143.891 39.3174C143.891 39.5322 143.873 39.7292 143.837 39.9082C144.338 38.9056 144.911 37.8672 145.556 36.793C146.2 35.6829 146.934 34.6803 147.758 33.7852C148.617 32.8542 149.548 32.1022 150.551 31.5293C151.589 30.9564 152.735 30.6699 153.988 30.6699C155.027 30.6699 155.886 30.8311 156.566 31.1533C157.247 31.4756 157.784 31.9411 158.178 32.5498C158.607 33.1227 158.894 33.8031 159.037 34.5908C159.216 35.3786 159.306 36.2201 159.306 37.1152C159.306 38.3327 159.27 39.568 159.198 40.8213C159.127 42.0387 159.055 43.2562 158.983 44.4736C158.876 45.7269 158.786 46.9622 158.715 48.1797C158.643 49.3971 158.607 50.6325 158.607 51.8857C158.607 53.3896 158.643 54.9473 158.715 56.5586C158.786 58.1341 158.894 59.6559 159.037 61.124C159.18 62.5563 159.341 63.8633 159.521 65.0449C159.7 66.1908 159.879 67.0859 160.058 67.7305C160.201 68.2676 160.344 68.8942 160.487 69.6104C160.666 70.2907 160.827 71.0068 160.971 71.7588C161.15 72.4749 161.293 73.1732 161.4 73.8535C161.508 74.5339 161.562 75.1426 161.562 75.6797C161.562 76.4674 161.239 76.9688 160.595 77.1836C159.986 77.3984 159.377 77.5059 158.769 77.5059C158.16 77.5059 157.462 77.4521 156.674 77.3447C155.922 77.2731 155.242 77.0762 154.633 76.7539C153.881 76.2168 153.38 75.4648 153.129 74.498C152.914 73.5312 152.771 72.5824 152.699 71.6514L152.538 70.2012C152.431 69.3418 152.287 68.2139 152.108 66.8174C151.929 65.4209 151.75 63.8812 151.571 62.1982C151.428 60.5153 151.303 58.7786 151.195 56.9883C151.088 55.1621 151.034 53.3896 151.034 51.6709C151.034 50.1312 151.088 48.6452 151.195 47.2129C151.339 45.7806 151.482 44.3304 151.625 42.8623C151.697 42.1104 151.75 41.5016 151.786 41.0361C151.822 40.5706 151.876 39.9619 151.947 39.21C151.231 40.3558 150.515 41.6986 149.799 43.2383C149.083 44.778 148.402 46.3893 147.758 48.0723C147.113 49.7194 146.522 51.3307 145.985 52.9062C145.484 54.4818 145.09 55.8604 144.804 57.042L144.481 58.2236C144.302 58.7965 144.141 59.3695 143.998 59.9424C143.891 60.5153 143.837 61.0524 143.837 61.5537C143.837 62.1982 143.873 62.9502 143.944 63.8096C144.016 64.6331 144.105 65.4209 144.213 66.1729C144.32 67.068 144.446 67.9811 144.589 68.9121C144.589 68.9837 144.625 69.2165 144.696 69.6104C144.768 70.0042 144.84 70.4697 144.911 71.0068C144.983 71.5439 145.036 72.1169 145.072 72.7256C145.144 73.2985 145.18 73.8177 145.18 74.2832Z" fill="#222222"/>
<path d="M129.494 29.3789C129.494 29.9876 129.351 30.4352 129.064 30.7217C128.814 30.9723 128.33 31.0977 127.614 31.0977C127.292 31.0977 126.791 31.0618 126.11 30.9902C125.43 30.8828 124.732 30.7396 124.016 30.5605C123.335 30.3815 122.727 30.1309 122.189 29.8086C121.688 29.4863 121.438 29.0924 121.438 28.627C121.438 28.4837 121.491 28.0898 121.599 27.4453C121.706 26.765 121.831 26.0488 121.975 25.2969C122.154 24.5449 122.297 23.8646 122.404 23.2559C122.548 22.6471 122.655 22.307 122.727 22.2354V22.2891C122.906 22.0026 123.12 21.8236 123.371 21.752C123.622 21.6803 123.872 21.6445 124.123 21.6445C124.445 21.6445 124.857 21.6982 125.358 21.8057C125.896 21.8773 126.415 22.0026 126.916 22.1816C127.453 22.3249 127.937 22.5218 128.366 22.7725C128.796 23.0231 129.064 23.2917 129.172 23.5781C129.279 23.8646 129.333 24.2585 129.333 24.7598C129.369 25.2253 129.369 25.6549 129.333 26.0488C129.333 26.1921 129.315 26.3711 129.279 26.5859C129.279 26.765 129.279 26.9082 129.279 27.0156C129.279 27.1947 129.279 27.3737 129.279 27.5527C129.315 27.7318 129.351 27.9108 129.387 28.0898C129.423 28.2689 129.44 28.4658 129.44 28.6807C129.476 28.8955 129.494 29.1283 129.494 29.3789ZM131.481 72.1865C131.481 73.0101 131.285 73.6009 130.891 73.959C130.533 74.2812 129.942 74.4424 129.118 74.4424C128.688 74.4424 128.205 74.3887 127.668 74.2812C127.167 74.1738 126.665 74.0306 126.164 73.8516C125.663 73.6367 125.197 73.3861 124.768 73.0996C124.338 72.8132 124.016 72.4909 123.801 72.1328C123.658 71.918 123.532 71.2555 123.425 70.1455C123.317 69.0355 123.228 67.6569 123.156 66.0098C123.12 64.3626 123.067 62.5186 122.995 60.4775C122.959 58.4365 122.924 56.3776 122.888 54.3008C122.888 52.224 122.888 50.2008 122.888 48.2314C122.888 46.262 122.888 44.5433 122.888 43.0752V38.9395C122.888 38.5814 122.888 38.2233 122.888 37.8652C122.924 37.5072 122.995 37.2028 123.103 36.9521C123.246 36.6657 123.443 36.4329 123.693 36.2539C123.98 36.0749 124.374 35.9854 124.875 35.9854C126.451 35.9854 127.596 36.4329 128.312 37.3281C129.064 38.1875 129.53 39.3512 129.709 40.8193C129.888 43.0036 130.013 45.1878 130.085 47.3721C130.192 49.5205 130.282 51.7048 130.354 53.9248C130.425 55.93 130.479 57.9173 130.515 59.8867C130.586 61.8203 130.712 63.7539 130.891 65.6875C130.926 66.0814 130.962 66.4574 130.998 66.8154C131.034 67.1735 131.088 67.5316 131.159 67.8896C131.231 68.6058 131.302 69.3219 131.374 70.0381C131.446 70.7184 131.481 71.4346 131.481 72.1865Z" fill="#222222"/>
<path d="M115.854 29.3789C115.854 29.9876 115.71 30.4352 115.424 30.7217C115.173 30.9723 114.69 31.0977 113.974 31.0977C113.651 31.0977 113.15 31.0618 112.47 30.9902C111.789 30.8828 111.091 30.7396 110.375 30.5605C109.695 30.3815 109.086 30.1309 108.549 29.8086C108.048 29.4863 107.797 29.0924 107.797 28.627C107.797 28.4837 107.851 28.0898 107.958 27.4453C108.065 26.765 108.191 26.0488 108.334 25.2969C108.513 24.5449 108.656 23.8646 108.764 23.2559C108.907 22.6471 109.014 22.307 109.086 22.2354V22.2891C109.265 22.0026 109.48 21.8236 109.73 21.752C109.981 21.6803 110.232 21.6445 110.482 21.6445C110.805 21.6445 111.216 21.6982 111.718 21.8057C112.255 21.8773 112.774 22.0026 113.275 22.1816C113.812 22.3249 114.296 22.5218 114.726 22.7725C115.155 23.0231 115.424 23.2917 115.531 23.5781C115.639 23.8646 115.692 24.2585 115.692 24.7598C115.728 25.2253 115.728 25.6549 115.692 26.0488C115.692 26.1921 115.674 26.3711 115.639 26.5859C115.639 26.765 115.639 26.9082 115.639 27.0156C115.639 27.1947 115.639 27.3737 115.639 27.5527C115.674 27.7318 115.71 27.9108 115.746 28.0898C115.782 28.2689 115.8 28.4658 115.8 28.6807C115.836 28.8955 115.854 29.1283 115.854 29.3789ZM117.841 72.1865C117.841 73.0101 117.644 73.6009 117.25 73.959C116.892 74.2812 116.301 74.4424 115.478 74.4424C115.048 74.4424 114.564 74.3887 114.027 74.2812C113.526 74.1738 113.025 74.0306 112.523 73.8516C112.022 73.6367 111.557 73.3861 111.127 73.0996C110.697 72.8132 110.375 72.4909 110.16 72.1328C110.017 71.918 109.892 71.2555 109.784 70.1455C109.677 69.0355 109.587 67.6569 109.516 66.0098C109.48 64.3626 109.426 62.5186 109.354 60.4775C109.319 58.4365 109.283 56.3776 109.247 54.3008C109.247 52.224 109.247 50.2008 109.247 48.2314C109.247 46.262 109.247 44.5433 109.247 43.0752V38.9395C109.247 38.5814 109.247 38.2233 109.247 37.8652C109.283 37.5072 109.354 37.2028 109.462 36.9521C109.605 36.6657 109.802 36.4329 110.053 36.2539C110.339 36.0749 110.733 35.9854 111.234 35.9854C112.81 35.9854 113.956 36.4329 114.672 37.3281C115.424 38.1875 115.889 39.3512 116.068 40.8193C116.247 43.0036 116.373 45.1878 116.444 47.3721C116.552 49.5205 116.641 51.7048 116.713 53.9248C116.785 55.93 116.838 57.9173 116.874 59.8867C116.946 61.8203 117.071 63.7539 117.25 65.6875C117.286 66.0814 117.322 66.4574 117.357 66.8154C117.393 67.1735 117.447 67.5316 117.519 67.8896C117.59 68.6058 117.662 69.3219 117.733 70.0381C117.805 70.7184 117.841 71.4346 117.841 72.1865Z" fill="#222222"/>
<path d="M87.4941 75.4092C86.957 75.4092 86.3662 75.3376 85.7217 75.1943C85.113 75.0511 84.5221 74.8184 83.9492 74.4961C83.4121 74.1738 82.9466 73.7799 82.5527 73.3145C82.1947 72.8132 82.0156 72.2223 82.0156 71.542C82.0156 70.5394 82.0514 69.5547 82.123 68.5879C82.2305 67.5853 82.3379 66.6006 82.4453 65.6338V65.6875L82.7676 62.0889C82.875 60.7998 82.9645 59.3854 83.0361 57.8457C83.1077 56.306 83.1615 54.7484 83.1973 53.1729C83.2689 51.5615 83.3226 49.986 83.3584 48.4463C83.3942 46.9066 83.4121 45.4922 83.4121 44.2031C83.4121 43.4512 83.3942 42.6992 83.3584 41.9473C83.3584 41.1595 83.3584 40.3717 83.3584 39.584C83.3226 38.9036 83.3047 38.1517 83.3047 37.3281C83.3047 36.4688 83.3047 35.681 83.3047 34.9648C83.3047 34.2129 83.3942 33.6042 83.5732 33.1387C83.7881 32.6374 84.361 32.3867 85.292 32.3867C86.1156 32.3867 86.9749 32.6016 87.8701 33.0312C88.8011 33.4609 89.4456 34.0697 89.8037 34.8574H89.75C89.929 35.2513 90.0544 35.8958 90.126 36.791C90.2334 37.6504 90.305 38.4202 90.3408 39.1006C90.9495 38.1696 91.6299 37.1849 92.3818 36.1465C93.1696 35.1081 94.0111 34.1592 94.9062 33.2998C95.8014 32.4046 96.7503 31.6706 97.7529 31.0977C98.7555 30.5247 99.8298 30.2383 100.976 30.2383C102.479 30.2383 103.625 30.6143 104.413 31.3662C105.201 32.1182 105.774 33.0671 106.132 34.2129C106.49 35.3229 106.687 36.5225 106.723 37.8115C106.758 39.0648 106.776 40.2106 106.776 41.249V41.6787C106.776 42.1084 106.758 42.5381 106.723 42.9678C106.723 43.3617 106.651 43.7376 106.508 44.0957C106.4 44.418 106.186 44.6865 105.863 44.9014C105.577 45.1162 105.165 45.2236 104.628 45.2236C104.055 45.2236 103.446 45.152 102.802 45.0088C102.157 44.8298 101.549 44.5791 100.976 44.2568C100.438 43.9346 99.973 43.5407 99.5791 43.0752C99.1852 42.5739 98.9704 42.001 98.9346 41.3564C98.9346 41.07 98.9346 40.7835 98.9346 40.4971C98.9346 40.2106 98.9525 39.9242 98.9883 39.6377C98.9883 39.4587 98.9883 39.2438 98.9883 38.9932C99.0241 38.7067 99.042 38.4382 99.042 38.1875C97.8962 39.3333 96.8757 40.7477 95.9805 42.4307C95.1211 44.1136 94.3333 45.904 93.6172 47.8018C92.9368 49.6995 92.346 51.6152 91.8447 53.5488C91.3434 55.4466 90.9137 57.1654 90.5557 58.7051V58.8662C90.4482 59.9762 90.3766 61.0684 90.3408 62.1426C90.305 63.2168 90.2692 64.3268 90.2334 65.4727C90.1976 66.7617 90.1439 68.0687 90.0723 69.3936C90.0365 70.7184 89.9469 72.0075 89.8037 73.2607C89.7321 73.9411 89.5173 74.4603 89.1592 74.8184C88.8369 75.2122 88.2819 75.4092 87.4941 75.4092Z" fill="#222222"/>
<path d="M81.0479 61.2314C81.0479 61.5895 80.9404 62.0192 80.7256 62.5205C80.5465 62.986 80.2959 63.4873 79.9736 64.0244C79.6872 64.5257 79.3649 65.0449 79.0068 65.582C78.6488 66.1191 78.3086 66.6025 77.9863 67.0322L77.1807 68.1602L76.375 69.5566L75.6768 70.8457C75.7126 71.5618 75.7663 72.3317 75.8379 73.1553C75.9095 73.9788 75.9811 74.7666 76.0527 75.5186C76.4466 79.2067 76.7868 82.9665 77.0732 86.7979C77.3955 90.6292 77.5566 94.389 77.5566 98.0771C77.5566 100.047 77.3955 102.034 77.0732 104.039C76.751 106.08 76.1423 107.906 75.2471 109.518C74.3877 111.165 73.1882 112.507 71.6484 113.546C70.1087 114.584 68.1393 115.104 65.7402 115.104C64.0931 115.104 62.6966 114.799 61.5508 114.19C60.4049 113.582 59.474 112.758 58.7578 111.72C58.0775 110.717 57.5762 109.535 57.2539 108.175C56.9316 106.814 56.7705 105.4 56.7705 103.932C56.7705 101.031 57.1107 98.0951 57.791 95.123C58.4714 92.151 59.3486 89.2148 60.4229 86.3145C61.5329 83.4141 62.7861 80.5674 64.1826 77.7744C65.5791 75.0173 66.9935 72.3675 68.4258 69.8252C68.4258 69.7536 68.4258 69.682 68.4258 69.6104C68.4258 69.5029 68.4079 69.3418 68.3721 69.127C67.9066 69.9863 67.3695 70.8815 66.7607 71.8125C66.1878 72.7077 65.5254 73.5133 64.7734 74.2295C64.0573 74.9456 63.2516 75.5365 62.3564 76.002C61.4971 76.4674 60.5303 76.7002 59.4561 76.7002C57.9521 76.7002 56.6989 76.3421 55.6963 75.626C54.6937 74.9098 53.888 73.9967 53.2793 72.8867C52.7064 71.7767 52.2946 70.5592 52.0439 69.2344C51.7933 67.9095 51.668 66.6562 51.668 65.4746C51.668 64.1139 51.7396 62.7712 51.8828 61.4463C52.0618 60.1214 52.2588 58.8324 52.4736 57.5791C52.8317 55.5739 53.2793 53.4076 53.8164 51.0801C54.3893 48.7168 55.0876 46.3893 55.9111 44.0977C56.7347 41.7702 57.6836 39.5859 58.7578 37.5449C59.8678 35.5039 61.1569 33.7673 62.625 32.335L63.0547 31.959C63.5202 31.4935 64.0573 31.0459 64.666 30.6162C65.2747 30.1507 65.9014 29.918 66.5459 29.918C66.9398 29.918 67.2799 30.0254 67.5664 30.2402C67.8887 30.4551 68.1572 30.7415 68.3721 31.0996C68.5869 31.4219 68.748 31.7799 68.8555 32.1738C68.9987 32.5677 69.0703 32.9437 69.0703 33.3018C69.0703 33.7314 68.9092 34.1969 68.5869 34.6982H68.6943C70.8786 34.6982 72.3467 35.7008 73.0986 37.7061C73.4925 38.0641 73.779 38.4938 73.958 38.9951C74.1729 39.4964 74.2803 40.0335 74.2803 40.6064C74.2803 40.8929 74.2624 41.2152 74.2266 41.5732C74.1908 41.8955 74.137 42.1999 74.0654 42.4863C73.9938 42.8086 73.9401 43.113 73.9043 43.3994C73.8685 43.6859 73.8506 43.9544 73.8506 44.2051C73.8506 45.0286 73.8685 46.0492 73.9043 47.2666C73.9401 48.484 73.9938 49.7552 74.0654 51.0801C74.137 52.4049 74.2087 53.7119 74.2803 55.001C74.3877 56.2542 74.4772 57.3464 74.5488 58.2773C74.7995 57.9551 75.0859 57.6686 75.4082 57.418C75.7663 57.1673 76.1781 57.042 76.6436 57.042C77.0374 57.042 77.485 57.1852 77.9863 57.4717C78.5234 57.7581 79.0068 58.1162 79.4365 58.5459C79.902 58.9756 80.278 59.4411 80.5645 59.9424C80.8867 60.4079 81.0479 60.8376 81.0479 61.2314ZM66.2773 39.1025C66.2773 38.8877 66.2773 38.6549 66.2773 38.4043C66.3132 38.1536 66.3669 37.8851 66.4385 37.5986L66.0625 38.082C65.776 38.4043 65.5075 38.7087 65.2568 38.9951C65.0062 39.2816 64.7734 39.5859 64.5586 39.9082C63.6276 41.2689 62.804 43.0413 62.0879 45.2256C61.4076 47.374 60.8346 49.6478 60.3691 52.0469C59.9036 54.4102 59.5456 56.7376 59.2949 59.0293C59.0801 61.321 58.9727 63.2904 58.9727 64.9375C58.9727 65.7611 58.9906 66.5846 59.0264 67.4082C59.0622 68.2318 59.2412 69.0374 59.5635 69.8252C60.0648 69.2881 60.4766 68.7152 60.7988 68.1064C61.1211 67.4619 61.4255 66.7995 61.7119 66.1191C62.4997 64.3646 63.18 62.3236 63.7529 59.9961C64.3258 57.6686 64.7913 55.2695 65.1494 52.7988C65.5075 50.3281 65.776 47.9111 65.9551 45.5479C66.1341 43.1488 66.2415 41.0003 66.2773 39.1025ZM70.3594 96.4658C70.3594 94.0309 70.3057 91.7393 70.1982 89.5908C70.0908 87.4782 69.9297 85.2044 69.7148 82.7695C69.0703 84.3092 68.4079 85.9564 67.7275 87.7109C67.083 89.5013 66.5101 91.2917 66.0088 93.082C65.5075 94.9082 65.0957 96.7165 64.7734 98.5068C64.4512 100.297 64.29 101.998 64.29 103.609V103.985C64.29 104.809 64.3438 105.686 64.4512 106.617C64.5586 107.584 64.8988 108.372 65.4717 108.98H66.0625C66.7786 108.98 67.3695 108.73 67.835 108.229C68.3363 107.763 68.748 107.154 69.0703 106.402C69.3926 105.65 69.6432 104.809 69.8223 103.878C70.0013 102.947 70.1266 102.016 70.1982 101.085C70.2699 100.154 70.3057 99.2767 70.3057 98.4531C70.3415 97.6296 70.3594 96.9671 70.3594 96.4658Z" fill="#222222"/>
<path d="M47.5332 39.1025C47.5332 39.4606 47.4974 39.8366 47.4258 40.2305C47.3542 40.6243 47.2826 40.9824 47.2109 41.3047C47.1393 41.6986 47.0677 42.0745 46.9961 42.4326C46.9245 42.7549 46.8887 43.0771 46.8887 43.3994C46.8887 46.7295 46.9424 50.0775 47.0498 53.4434C47.193 56.7734 47.5511 60.1214 48.124 63.4873C48.3031 64.7764 48.5179 66.0296 48.7686 67.2471C49.0192 68.4645 49.3057 69.6999 49.6279 70.9531L49.7354 71.2754V71.168C49.8428 71.4186 49.9323 71.6872 50.0039 71.9736C50.1113 72.2243 50.165 72.4928 50.165 72.7793C50.165 73.1732 50.0576 73.4954 49.8428 73.7461C49.6637 73.9967 49.431 74.1937 49.1445 74.3369C48.8581 74.4801 48.5358 74.5697 48.1777 74.6055C47.8555 74.6413 47.5511 74.6592 47.2646 74.6592C46.083 74.6592 45.1341 74.5339 44.418 74.2832C43.7376 73.9967 43.1826 73.6208 42.7529 73.1553C42.3232 72.654 42.001 72.0632 41.7861 71.3828C41.6071 70.7025 41.446 69.9505 41.3027 69.127L41.1416 68.1602C40.9984 67.6589 40.9089 67.1217 40.873 66.5488C40.8372 66.2624 40.8014 66.137 40.7656 66.1729C40.7656 66.1729 40.7477 66.0296 40.7119 65.7432C40.2106 66.6383 39.6198 67.6051 38.9395 68.6436C38.2949 69.6462 37.543 70.5951 36.6836 71.4902C35.86 72.3496 34.9648 73.0837 33.998 73.6924C33.0312 74.2653 31.9928 74.5518 30.8828 74.5518C29.3431 74.5518 28.1436 74.0863 27.2842 73.1553C26.4606 72.2243 25.8519 71.0964 25.458 69.7715C25.0641 68.4108 24.8314 67.0143 24.7598 65.582C24.6882 64.1139 24.6523 62.8428 24.6523 61.7686C24.6523 57.6865 24.7777 53.6403 25.0283 49.6299C25.3148 45.6195 25.6191 41.5911 25.9414 37.5449C25.9414 37.4375 25.9414 37.2943 25.9414 37.1152C25.9772 36.9362 25.9951 36.793 25.9951 36.6855C26.0309 36.1842 26.0667 35.7188 26.1025 35.2891C26.1383 34.8594 26.2279 34.4476 26.3711 34.0537V34.1074C26.5143 33.5345 26.7113 33.1227 26.9619 32.8721C27.2484 32.6214 27.6781 32.4961 28.251 32.4961C28.7881 32.4961 29.3252 32.6035 29.8623 32.8184C30.3994 32.9974 30.8828 33.266 31.3125 33.624C31.7422 33.9463 32.0824 34.3402 32.333 34.8057C32.6195 35.2712 32.7627 35.7904 32.7627 36.3633C32.7627 36.6497 32.7627 36.9899 32.7627 37.3838C32.7627 37.7777 32.7448 38.1178 32.709 38.4043C32.709 38.6549 32.6911 38.9772 32.6553 39.3711C32.6553 39.7292 32.6553 40.0335 32.6553 40.2842C32.3688 43.7217 32.154 47.1413 32.0107 50.543C31.8675 53.9089 31.7959 57.3285 31.7959 60.8018C31.7959 61.7686 31.7959 62.7354 31.7959 63.7021C31.8317 64.6689 31.9391 65.6357 32.1182 66.6025C33.2998 65.0986 34.3203 63.1829 35.1797 60.8555C36.0391 58.4922 36.7552 56.0036 37.3281 53.3896C37.9368 50.7399 38.4202 48.126 38.7783 45.5479C39.1722 42.9339 39.4587 40.6243 39.6377 38.6191C39.6377 38.5117 39.6377 38.3864 39.6377 38.2432C39.6735 38.0999 39.6914 37.9746 39.6914 37.8672C39.7272 37.4733 39.763 37.0973 39.7988 36.7393C39.8346 36.3812 39.96 36.041 40.1748 35.7188C40.1748 35.3965 40.1927 35.0563 40.2285 34.6982C40.2643 34.3402 40.3538 34.0179 40.4971 33.7314C40.6403 33.4092 40.8372 33.1585 41.0879 32.9795C41.3743 32.8005 41.7682 32.7109 42.2695 32.7109C43.7018 32.7109 44.8298 33.1585 45.6533 34.0537C46.4769 34.9131 46.9245 36.0231 46.9961 37.3838C47.1751 37.6702 47.3005 37.9567 47.3721 38.2432C47.4795 38.4938 47.5332 38.7803 47.5332 39.1025Z" fill="#222222"/>
<path d="M15.3076 73.209C15.3076 73.6029 15.2181 73.943 15.0391 74.2295C14.86 74.4801 14.6273 74.6771 14.3408 74.8203C14.0902 74.9635 13.8037 75.0531 13.4814 75.0889C13.195 75.1605 12.9085 75.1963 12.6221 75.1963C12.2282 75.1963 11.7627 75.1426 11.2256 75.0352C10.7243 74.9635 10.223 74.8382 9.72168 74.6592C9.22038 74.4801 8.75488 74.2653 8.3252 74.0146C7.93132 73.7282 7.62695 73.388 7.41211 72.9941C7.19727 72.6361 7.00033 71.9736 6.82129 71.0068C6.67806 70.0042 6.55273 68.8584 6.44531 67.5693C6.33789 66.2445 6.24837 64.848 6.17676 63.3799C6.10514 61.876 6.03353 60.4437 5.96191 59.083C5.92611 57.7223 5.8903 56.5049 5.85449 55.4307C5.85449 54.3206 5.85449 53.4971 5.85449 52.96C5.85449 50.4535 5.8903 48.0365 5.96191 45.709C6.06934 43.3457 6.17676 40.9287 6.28418 38.458C6.10514 38.458 5.92611 38.4759 5.74707 38.5117C5.56803 38.5475 5.389 38.5654 5.20996 38.5654C4.74447 38.637 4.26107 38.6908 3.75977 38.7266C3.29427 38.7624 2.81087 38.7803 2.30957 38.7803C1.70085 38.7803 1.16374 38.6729 0.698242 38.458C0.232747 38.2432 0 37.7598 0 37.0078C0 36.1126 0.19694 35.3965 0.59082 34.8594C0.984701 34.3223 1.486 33.9105 2.09473 33.624C2.70345 33.3018 3.36589 33.0869 4.08203 32.9795C4.79818 32.8363 5.49642 32.7288 6.17676 32.6572C6.28418 32.6572 6.35579 32.6572 6.3916 32.6572C6.42741 32.6214 6.49902 32.6035 6.60645 32.6035C6.64225 32.1738 6.67806 31.6546 6.71387 31.0459C6.74967 30.4014 6.78548 29.7031 6.82129 28.9512C6.8571 27.7695 6.91081 26.5163 6.98242 25.1914C7.05404 23.8307 7.12565 22.5417 7.19727 21.3242C7.26888 20.071 7.3584 18.9788 7.46582 18.0479C7.57324 17.0811 7.68066 16.4007 7.78809 16.0068C7.96712 15.5413 8.16406 15.1654 8.37891 14.8789C8.62956 14.5924 9.07715 14.4492 9.72168 14.4492C11.154 14.4492 12.264 14.9147 13.0518 15.8457C13.8395 16.7767 14.2334 17.9225 14.2334 19.2832C14.2334 20.8587 14.1797 22.4342 14.0723 24.0098C14.0007 25.5853 13.929 27.1787 13.8574 28.79L13.6963 31.5293C14.5915 31.4219 15.4867 31.2607 16.3818 31.0459C17.2412 30.8669 18.1006 30.7057 18.96 30.5625C19.8551 30.4193 20.7145 30.3477 21.5381 30.3477C22.2542 30.3477 22.8092 30.5446 23.2031 30.9385C23.597 31.2965 23.7939 31.8337 23.7939 32.5498C23.7939 33.3376 23.6507 34.1074 23.3643 34.8594C23.0778 35.6113 22.5765 36.1842 21.8604 36.5781H21.9141C21.7708 36.6497 21.3411 36.7572 20.625 36.9004C19.9089 37.0078 19.0853 37.1152 18.1543 37.2227C17.2591 37.3301 16.3639 37.4375 15.4688 37.5449C14.6094 37.6523 13.9648 37.724 13.5352 37.7598H13.4814C13.4098 39.765 13.3561 41.7523 13.3203 43.7217C13.2845 45.6553 13.2666 47.6247 13.2666 49.6299C13.2666 52.387 13.3382 55.3232 13.4814 58.4385C13.6605 61.5179 13.9469 64.4541 14.3408 67.2471L14.7705 69.6641C14.9137 70.2728 15.0391 70.8815 15.1465 71.4902C15.2539 72.0632 15.3076 72.6361 15.3076 73.209Z" fill="#222222"/>
</svg>
