<svg width="430" height="102" viewBox="0 0 430 102" fill="none" xmlns="http://www.w3.org/2000/svg">
<path d="M99.2381 23.3789C102.635 23.3789 105.389 26.0956 105.389 29.4467C105.389 32.7979 102.635 35.5146 99.2381 35.5146L6.15044 35.5146C2.75364 35.5146 7.79201e-07 32.7979 5.0197e-07 29.4467C2.2474e-07 26.0956 2.75364 23.3789 6.15043 23.3789L99.2381 23.3789Z" fill="#34A251"/>
<path d="M92.8311 70.0586L92.7539 70.4893C91.0742 79.3471 84.0757 85.765 75.877 85.9668L75.4785 85.9717H30.2451L29.8477 85.9668C21.5165 85.7619 14.425 79.1384 12.8936 70.0586L7.02344 35.2578H14.4766L20.0967 68.5791C21.0066 73.9741 25.2722 77.8865 30.2451 77.8867H75.4785C80.4516 77.8867 84.718 73.9743 85.6279 68.5791L91.248 35.2578H98.7002L92.8311 70.0586Z" fill="#34A251"/>
<path d="M37.0469 66.426C37.0469 67.8676 35.903 69.0362 34.492 69.0362C33.081 69.0362 31.9371 67.8676 31.9371 66.426L31.9371 44.5008C31.9371 43.0592 33.081 41.8906 34.492 41.8906C35.903 41.8906 37.0469 43.0592 37.0469 44.5008L37.0469 66.426Z" fill="#34A251"/>
<path d="M54.9297 66.426C54.9297 67.8676 53.7858 69.0362 52.3748 69.0362C50.9638 69.0362 49.8199 67.8676 49.8199 66.426L49.8199 44.5008C49.8199 43.0592 50.9638 41.8906 52.3748 41.8906C53.7858 41.8906 54.9297 43.0592 54.9297 44.5008L54.9297 66.426Z" fill="#34A251"/>
<path d="M72.8125 66.426C72.8125 67.8676 71.6686 69.0362 70.2576 69.0362C68.8466 69.0362 67.7028 67.8676 67.7028 66.426L67.7028 44.5008C67.7028 43.0592 68.8466 41.8906 70.2576 41.8906C71.6686 41.8906 72.8125 43.0592 72.8125 44.5008L72.8125 66.426Z" fill="#34A251"/>
<path d="M43.9083 3.25289C45.1642 1.45743 47.7981 0.739841 49.7912 1.65011C51.7843 2.56038 52.3819 4.75381 51.1259 6.54927L37.6714 25.7837C36.4155 27.5792 33.7816 28.2967 31.7885 27.3865C29.7954 26.4762 29.1978 24.2828 30.4537 22.4873L43.9083 3.25289Z" fill="#34A251"/>
<path d="M61.4784 3.25289C60.2225 1.45743 57.5887 0.739841 55.5956 1.65011C53.6025 2.56038 53.0049 4.75381 54.2608 6.54927L67.7153 25.7837C68.9713 27.5792 71.6051 28.2967 73.5982 27.3865C75.5913 26.4762 76.1889 24.2828 74.933 22.4873L61.4784 3.25289Z" fill="#34A251"/>
<path d="M407.438 38.5586C410.386 38.5586 412.857 39.1043 414.85 40.1963C416.394 41.0427 417.724 42.1692 418.843 43.5732L419.313 39.377H430.002V82.2139C430.002 86.2543 429.101 89.6802 427.299 92.4922C425.524 95.3315 423.04 97.4749 419.846 98.9219C416.651 100.396 412.939 101.134 408.707 101.134C406.851 101.134 404.884 100.888 402.81 100.396C400.762 99.9051 398.797 99.1399 396.913 98.1025C395.057 97.0651 393.5 95.7552 392.244 94.1719L397.445 87.21C398.81 88.7933 400.394 90.0219 402.195 90.8955C403.997 91.7965 405.991 92.2471 408.175 92.2471C410.304 92.247 412.106 91.8512 413.58 91.0596C415.054 90.2951 416.188 89.1617 416.979 87.6602C417.771 86.1859 418.167 84.3971 418.167 82.2949V79.8594C417.078 81.0849 415.823 82.0882 414.399 82.8682C412.434 83.9602 410.086 84.5068 407.355 84.5068C404.625 84.5068 402.155 83.9474 399.943 82.8281C397.759 81.7088 395.889 80.1384 394.333 78.1182C392.777 76.0979 391.575 73.7223 390.729 70.9922C389.91 68.2621 389.5 65.2859 389.5 62.0645V61.2051C389.5 57.8197 389.909 54.7477 390.729 51.9902C391.575 49.2056 392.763 46.8172 394.292 44.8242C395.848 42.8312 397.732 41.2884 399.943 40.1963C402.155 39.1043 404.653 38.5586 407.438 38.5586ZM410.427 47.8135C408.871 47.8135 407.52 48.1683 406.373 48.8779C405.254 49.5605 404.311 50.5028 403.547 51.7041C402.81 52.9053 402.25 54.3249 401.868 55.9629C401.486 57.5737 401.295 59.3213 401.295 61.2051V62.0645C401.295 63.8936 401.472 65.6002 401.827 67.1836C402.182 68.7671 402.728 70.1738 403.465 71.4023C404.229 72.6035 405.172 73.545 406.291 74.2275C407.438 74.8827 408.789 75.2109 410.345 75.2109C412.502 75.2109 414.263 74.7603 415.628 73.8594C416.676 73.1468 417.521 72.232 418.167 71.1172V52.0059C417.953 51.6223 417.723 51.2615 417.471 50.9258C416.734 49.9431 415.778 49.1788 414.604 48.6328C413.431 48.0868 412.038 47.8135 410.427 47.8135Z" fill="#222222"/>
<path d="M342.035 61.9833V61.1233C342.035 57.8744 342.499 54.8849 343.428 52.1548C344.356 49.3973 345.707 47.0084 347.482 44.9881C349.256 42.9678 351.441 41.398 354.034 40.2786C356.628 39.1319 359.604 38.5586 362.962 38.5586C366.32 38.5586 369.309 39.1319 371.93 40.2786C374.551 41.398 376.749 42.9678 378.524 44.9881C380.326 47.0084 381.691 49.3973 382.619 52.1548C383.547 54.8849 384.011 57.8744 384.011 61.1233V61.9833C384.011 65.2049 383.547 68.1944 382.619 70.9519C381.691 73.682 380.326 76.0709 378.524 78.1185C376.749 80.1388 374.565 81.7087 371.971 82.828C369.378 83.9474 366.402 84.5071 363.044 84.5071C359.686 84.5071 356.696 83.9474 354.075 82.828C351.481 81.7087 349.284 80.1388 347.482 78.1185C345.707 76.0709 344.356 73.682 343.428 70.9519C342.499 68.1944 342.035 65.2049 342.035 61.9833ZM353.829 61.1233V61.9833C353.829 63.8398 353.993 65.5735 354.321 67.1842C354.648 68.795 355.167 70.2147 355.877 71.4433C356.614 72.6445 357.57 73.5865 358.744 74.269C359.918 74.9515 361.351 75.2928 363.044 75.2928C364.682 75.2928 366.088 74.9515 367.262 74.269C368.436 73.5865 369.378 72.6445 370.087 71.4433C370.797 70.2147 371.316 68.795 371.644 67.1842C371.999 65.5735 372.176 63.8398 372.176 61.9833V61.1233C372.176 59.3214 371.999 57.6287 371.644 56.0452C371.316 54.4344 370.784 53.0148 370.047 51.7862C369.337 50.5303 368.395 49.5475 367.221 48.8376C366.047 48.1278 364.627 47.7729 362.962 47.7729C361.296 47.7729 359.877 48.1278 358.703 48.8376C357.556 49.5475 356.614 50.5303 355.877 51.7862C355.167 53.0148 354.648 54.4344 354.321 56.0452C353.993 57.6287 353.829 59.3214 353.829 61.1233Z" fill="#222222"/>
<path d="M311.562 74.1064H337.608V83.6885H299.277V24.0625H311.562V74.1064Z" fill="#222222"/>
<path d="M265.536 55.708L267.788 52.8486L279.296 39.375H293.466L277.371 57.7285L294.817 83.6855H281.221L269.782 65.8125L265.536 70.1094V83.6855H253.742V20.7422H265.536V55.708Z" fill="#222222"/>
<path d="M228.311 75.2928C229.758 75.2928 231.041 75.0198 232.16 74.4738C233.279 73.9004 234.153 73.1087 234.781 72.0985C235.436 71.0611 235.778 69.8461 235.805 68.4538H246.903C246.876 71.5661 246.043 74.3372 244.405 76.7671C242.767 79.1696 240.569 81.0671 237.812 82.4594C235.054 83.8245 231.969 84.5071 228.556 84.5071C225.116 84.5071 222.113 83.9337 219.547 82.7871C217.008 81.6404 214.892 80.0569 213.199 78.0366C211.506 75.989 210.237 73.6138 209.391 70.9109C208.544 68.1807 208.121 65.2595 208.121 62.1471V60.9595C208.121 57.8198 208.544 54.8986 209.391 52.1957C210.237 49.4656 211.506 47.0903 213.199 45.07C214.892 43.0224 217.008 41.4253 219.547 40.2786C222.086 39.1319 225.062 38.5586 228.474 38.5586C232.105 38.5586 235.286 39.2548 238.016 40.6472C240.774 42.0395 242.931 44.0325 244.487 46.6262C246.07 49.1925 246.876 52.2367 246.903 55.7586H235.805C235.778 54.2843 235.464 52.9465 234.863 51.7452C234.29 50.544 233.443 49.5884 232.324 48.8786C231.232 48.1414 229.88 47.7729 228.27 47.7729C226.55 47.7729 225.144 48.1414 224.052 48.8786C222.959 49.5884 222.113 50.5713 221.512 51.8271C220.912 53.0557 220.489 54.4617 220.243 56.0452C220.025 57.6014 219.915 59.2395 219.915 60.9595V62.1471C219.915 63.8671 220.025 65.5188 220.243 67.1023C220.461 68.6858 220.871 70.0919 221.472 71.3204C222.099 72.549 222.959 73.5182 224.052 74.228C225.144 74.9379 226.563 75.2928 228.311 75.2928Z" fill="#222222"/>
<path d="M200.26 39.3773V83.6876H188.425V39.3773H200.26ZM187.688 27.8287C187.688 26.1087 188.288 24.689 189.489 23.5697C190.691 22.4503 192.301 21.8906 194.322 21.8906C196.315 21.8906 197.912 22.4503 199.113 23.5697C200.342 24.689 200.956 26.1087 200.956 27.8287C200.956 29.5487 200.342 30.9684 199.113 32.0877C197.912 33.2071 196.315 33.7668 194.322 33.7668C192.301 33.7668 190.691 33.2071 189.489 32.0877C188.288 30.9684 187.688 29.5487 187.688 27.8287Z" fill="#222222"/>
<path d="M157.708 24.0625C162.376 24.0625 166.376 24.9089 169.707 26.6016C173.065 28.267 175.632 30.5739 177.406 33.5225C179.181 36.471 180.068 39.8428 180.068 43.6377C180.068 47.4871 179.181 50.8179 177.406 53.6299C175.632 56.4419 173.065 58.6127 169.707 60.1416C166.376 61.6704 162.376 62.4346 157.708 62.4346H146.774V83.6885H134.488V24.0625H157.708ZM146.774 52.8516H157.708C160.056 52.8516 161.967 52.4694 163.441 51.7051C164.916 50.9133 165.994 49.8211 166.677 48.4287C167.359 47.0364 167.701 45.4669 167.701 43.7197C167.701 41.9452 167.359 40.2934 166.677 38.7646C165.994 37.2358 164.916 36.0064 163.441 35.0781C161.967 34.15 160.056 33.6865 157.708 33.6865H146.774V52.8516Z" fill="#222222"/>
</svg>
